<svg width="40" height="40" viewBox="0 0 40 40" fill="none" xmlns="http://www.w3.org/2000/svg">
<path d="M19.0208 28.3699L11.3208 20.6699C11.2042 20.5532 11.1213 20.4268 11.0723 20.2907C11.0241 20.1546 11 20.0088 11 19.8532C11 19.6976 11.0241 19.5518 11.0723 19.4157C11.1213 19.2796 11.2042 19.1532 11.3208 19.0365L19.0208 11.3365C19.2347 11.1226 19.5019 11.0106 19.8223 11.0005C20.1436 10.9912 20.4208 11.1032 20.6542 11.3365C20.8875 11.5504 21.0092 11.8176 21.0193 12.138C21.0287 12.4593 20.9167 12.7365 20.6833 12.9699L14.9667 18.6865H28.0042C28.3347 18.6865 28.612 18.7981 28.836 19.0214C29.0592 19.2454 29.1708 19.5226 29.1708 19.8532C29.1708 20.1838 29.0592 20.4606 28.836 20.6839C28.612 20.9079 28.3347 21.0199 28.0042 21.0199H14.9667L20.6833 26.7365C20.8972 26.9504 21.0092 27.2226 21.0193 27.5532C21.0287 27.8838 20.9167 28.156 20.6833 28.3699C20.4694 28.6032 20.1972 28.7199 19.8667 28.7199C19.5361 28.7199 19.2542 28.6032 19.0208 28.3699Z" fill="black"/>
</svg>
