<svg width="141" height="141" viewBox="0 0 141 141" fill="none" xmlns="http://www.w3.org/2000/svg">
<path fill-rule="evenodd" clip-rule="evenodd" d="M41.9172 31.3758L20.2931 53L28.9147 61.6217L33.5114 55.485C36.9997 50.8358 44.4022 53.5075 44.1106 59.3175L41.8181 105.208C41.7786 105.998 41.8998 106.787 42.1745 107.528C42.4492 108.269 42.8715 108.946 43.416 109.519C43.9604 110.092 44.6155 110.548 45.3416 110.86C46.0676 111.172 46.8495 111.333 47.6397 111.333H93.1164C93.9066 111.333 94.6885 111.172 95.4146 110.86C96.1407 110.548 96.7958 110.092 97.3402 109.519C97.8846 108.946 98.307 108.269 98.5816 107.528C98.8563 106.787 98.9776 105.998 98.9381 105.208L96.6456 59.3175C96.3539 53.5075 103.756 50.8358 107.245 55.485L111.841 61.6217L120.463 53L98.8389 31.3758C96.6281 29.1708 93.4197 29.6667 90.5906 29.6667C88.5431 33.2153 85.5969 36.162 82.0486 38.2101C78.5003 40.2582 74.4751 41.3354 70.3781 41.3333C66.2811 41.3354 62.2559 40.2582 58.7075 38.2101C55.1592 36.162 52.213 33.2153 50.1656 29.6667C47.3306 29.6667 44.1222 29.1708 41.9172 31.3758ZM33.6689 23.1275C36.95 19.8454 41.4005 18.001 46.0414 18H53.4614C56.2147 18 58.5481 19.7325 59.4697 22.1417C60.3117 24.3528 61.8058 26.2558 63.7539 27.5985C65.702 28.9412 68.0121 29.6602 70.3781 29.6602C72.7441 29.6602 75.0542 28.9412 77.0023 27.5985C78.9504 26.2558 80.4444 24.3528 81.2864 22.1417C82.2081 19.7325 84.5414 18 87.2947 18H94.7148C99.3536 18.0025 103.802 19.8468 107.081 23.1275L128.711 44.7517C130.899 46.9395 132.127 49.9064 132.127 53C132.127 56.0936 130.899 59.0605 128.711 61.2483L120.09 69.87C117.056 72.9033 112.821 73.8892 109.006 72.9383L110.593 104.625C110.712 106.994 110.348 109.362 109.523 111.586C108.698 113.809 107.43 115.842 105.795 117.561C104.161 119.279 102.194 120.647 100.015 121.582C97.835 122.518 95.4881 123 93.1164 123H47.6397C45.2681 123 42.9212 122.518 40.7416 121.582C38.562 120.647 36.5952 119.279 34.9607 117.561C33.3262 115.842 32.0581 113.809 31.2334 111.586C30.4086 109.362 30.0445 106.994 30.1631 104.625L31.7497 72.9383C29.7948 73.4301 27.7456 73.4059 25.8028 72.868C23.86 72.3302 22.0901 71.2971 20.6664 69.87L12.0447 61.2483C9.85759 59.0605 8.62891 56.0936 8.62891 53C8.62891 49.9064 9.85759 46.9395 12.0447 44.7517L33.6689 23.1275Z" fill="#E6D9CD"/>
</svg>
