<svg width="128" height="41" viewBox="0 0 128 41" fill="none" xmlns="http://www.w3.org/2000/svg">
<rect x="0.5" y="0.5" width="127" height="40" rx="10" fill="#FFEDE3"/>
<path d="M90.56 17.52L91.48 18.44L82.42 27.5H81.5V26.58L90.56 17.52ZM94.16 11.5C93.91 11.5 93.65 11.6 93.46 11.79L91.63 13.62L95.38 17.37L97.21 15.54C97.3027 15.4475 97.3762 15.3376 97.4264 15.2166C97.4766 15.0957 97.5024 14.966 97.5024 14.835C97.5024 14.704 97.4766 14.5743 97.4264 14.4534C97.3762 14.3324 97.3027 14.2225 97.21 14.13L94.87 11.79C94.67 11.59 94.42 11.5 94.16 11.5ZM90.56 14.69L79.5 25.75V29.5H83.25L94.31 18.44L90.56 14.69Z" fill="#7A5F59"/>
<path d="M37.1492 28.5V14.1H46.5492V16.64H39.8692V19.72H45.3492V22.26H39.8692V25.96H46.5492V28.5H37.1492ZM53.1261 28.8C52.1328 28.8 51.2628 28.55 50.5161 28.05C49.7694 27.55 49.1861 26.87 48.7661 26.01C48.3528 25.15 48.1461 24.18 48.1461 23.1C48.1461 22 48.3561 21.0233 48.7761 20.17C49.2028 19.31 49.7994 18.6333 50.5661 18.14C51.3328 17.6467 52.2328 17.4 53.2661 17.4C54.2928 17.4 55.1561 17.65 55.8561 18.15C56.5561 18.65 57.0861 19.33 57.4461 20.19C57.8061 21.05 57.9861 22.02 57.9861 23.1C57.9861 24.18 57.8028 25.15 57.4361 26.01C57.0761 26.87 56.5361 27.55 55.8161 28.05C55.0961 28.55 54.1994 28.8 53.1261 28.8ZM53.5661 26.38C54.1728 26.38 54.6561 26.2433 55.0161 25.97C55.3828 25.6967 55.6461 25.3133 55.8061 24.82C55.9661 24.3267 56.0461 23.7533 56.0461 23.1C56.0461 22.4467 55.9661 21.8733 55.8061 21.38C55.6461 20.8867 55.3894 20.5033 55.0361 20.23C54.6894 19.9567 54.2328 19.82 53.6661 19.82C53.0594 19.82 52.5594 19.97 52.1661 20.27C51.7794 20.5633 51.4928 20.96 51.3061 21.46C51.1194 21.9533 51.0261 22.5 51.0261 23.1C51.0261 23.7067 51.1161 24.26 51.2961 24.76C51.4761 25.2533 51.7528 25.6467 52.1261 25.94C52.4994 26.2333 52.9794 26.38 53.5661 26.38ZM56.0461 28.5V21.1H55.7061V14.1H58.4461V28.5H56.0461ZM61.2461 16.2V13.8H63.9661V16.2H61.2461ZM61.2461 28.5V17.7H63.9661V28.5H61.2461ZM73.2441 28.5C72.4974 28.64 71.7641 28.7 71.0441 28.68C70.3307 28.6667 69.6907 28.5433 69.1241 28.31C68.5641 28.07 68.1374 27.6867 67.8441 27.16C67.5774 26.6667 67.4374 26.1667 67.4241 25.66C67.4107 25.1467 67.4041 24.5667 67.4041 23.92V14.7H70.1241V23.76C70.1241 24.18 70.1274 24.56 70.1341 24.9C70.1474 25.2333 70.2174 25.5 70.3441 25.7C70.5841 26.08 70.9674 26.2867 71.4941 26.32C72.0207 26.3533 72.6041 26.3267 73.2441 26.24V28.5ZM65.5641 19.8V17.7H73.2441V19.8H65.5641Z" fill="#7A5F59"/>
</svg>
