<svg width="36" height="36" viewBox="0 0 36 36" fill="none" xmlns="http://www.w3.org/2000/svg">
<circle cx="18" cy="18" r="18" fill="#FFEDE3"/>
<path d="M19.56 15.02L20.48 15.94L11.42 25H10.5V24.08L19.56 15.02ZM23.16 9C22.91 9 22.65 9.1 22.46 9.29L20.63 11.12L24.38 14.87L26.21 13.04C26.3027 12.9475 26.3763 12.8376 26.4264 12.7166C26.4766 12.5957 26.5024 12.466 26.5024 12.335C26.5024 12.204 26.4766 12.0743 26.4264 11.9534C26.3763 11.8324 26.3027 11.7225 26.21 11.63L23.87 9.29C23.67 9.09 23.42 9 23.16 9ZM19.56 12.19L8.5 23.25V27H12.25L23.31 15.94L19.56 12.19Z" fill="#7A5F59"/>
</svg>
