<svg width="214" height="214" viewBox="0 0 214 214" fill="none" xmlns="http://www.w3.org/2000/svg">
<path d="M107 62.4166C111.904 62.4166 115.916 66.4291 115.916 71.3332V107C115.916 111.904 111.904 115.917 107 115.917C102.096 115.917 98.083 111.904 98.083 107V71.3332C98.083 66.4291 102.096 62.4166 107 62.4166ZM106.91 17.8333C57.6905 17.8333 17.833 57.7799 17.833 107C17.833 156.22 57.6905 196.167 106.91 196.167C156.22 196.167 196.166 156.22 196.166 107C196.166 57.7799 156.22 17.8333 106.91 17.8333ZM107 178.333C67.588 178.333 35.6663 146.412 35.6663 107C35.6663 67.5882 67.588 35.6666 107 35.6666C146.411 35.6666 178.333 67.5882 178.333 107C178.333 146.412 146.411 178.333 107 178.333ZM115.916 151.583H98.083V133.75H115.916V151.583Z" fill="#AF867D"/>
</svg>
