<svg width="140" height="87" viewBox="0 0 140 87" fill="none" xmlns="http://www.w3.org/2000/svg">
<path d="M44.3894 3.71095C43.86 5.47575 44.213 9.18182 45.2718 11.829C48.8014 20.8295 41.0363 21.5354 26.0356 13.4173C14.7409 7.24054 12.9761 7.76998 7.32874 19.2411C3.09323 27.8886 2.03436 32.8301 0.799 50.6545C-0.965794 75.3616 -0.436356 78.7147 5.9169 82.7738C10.1524 85.5974 16.3292 85.9504 62.0374 86.3033C119.57 86.4798 122.393 86.1269 132.982 73.7733C139.688 66.3612 141.453 60.8903 139.865 52.7722C137.924 42.5364 131.217 38.1245 109.157 32.1241C98.0392 29.124 90.4506 25.5944 78.6264 17.8293C62.3903 7.06406 50.2133 0.357843 47.2131 0.357843C46.3307 0.357843 45.0953 1.76968 44.3894 3.71095ZM66.9788 28.2416C66.6258 31.4182 67.6847 34.4184 69.273 35.8302C71.7437 37.7715 72.6261 37.595 75.6263 34.0654C78.2735 30.7123 79.3324 30.1829 81.0972 31.9477C82.3325 33.183 83.2149 36.1832 83.2149 38.8304C83.2149 44.4777 88.8623 46.419 92.2154 41.8305C94.3331 39.0068 95.392 39.1833 108.275 42.7129C129.276 48.3603 135.276 53.8311 125.57 58.2431C118.687 61.4197 100.51 60.7138 81.2736 56.6548C67.1553 53.6546 60.0961 53.1252 44.3894 54.0076C33.8007 54.537 22.153 54.3606 18.7999 53.6546C12.9761 52.4193 12.6231 51.8898 12.0937 44.4777C11.5642 38.4774 15.7998 21.5354 17.741 21.5354C17.9175 21.5354 21.0941 23.1237 24.9767 25.065C29.3887 27.3592 35.389 28.5946 41.3893 28.5946C49.3309 28.5946 51.4486 27.8886 55.5076 23.6531C59.5667 19.2411 60.802 18.8882 63.8022 20.8295C66.2729 22.2413 67.1553 24.5355 66.9788 28.2416ZM44.3894 64.4199C57.4489 63.714 65.9199 64.2434 77.0381 66.5376C85.3327 68.3024 98.3922 70.2437 106.157 70.9496C119.746 72.0085 120.099 72.185 114.981 74.3027C111.452 75.8911 104.216 76.4205 92.9213 76.0675C71.9202 75.3616 48.4485 75.3616 31.1535 76.244C13.329 77.1264 9.97593 75.7146 9.97593 68.4789V62.6551L18.4469 63.8905C23.0354 64.5964 34.6831 64.7728 44.3894 64.4199Z" fill="#E6D9CD"/>
</svg>
