<svg width="140" height="141" viewBox="0 0 140 141" fill="none" xmlns="http://www.w3.org/2000/svg">
<path fill-rule="evenodd" clip-rule="evenodd" d="M29.7189 80.4225L33.8606 47.2308C34.1587 44.843 34.946 42.5423 36.1734 40.4725C37.4007 38.4027 39.0418 36.6082 40.994 35.2013C42.9462 33.7943 45.1676 32.8051 47.5194 32.2955C49.8712 31.7858 52.3028 31.7666 54.6623 32.2392C59.6614 33.2425 65.2673 35.2725 70.3773 35.2725C75.4873 35.2725 81.0931 33.2425 86.0923 32.2392C88.4514 31.7675 90.8824 31.7874 93.2335 32.2975C95.5845 32.8075 97.8052 33.7969 99.7567 35.2038C101.708 36.6106 103.349 38.4048 104.576 40.4741C105.803 42.5435 106.59 44.8436 106.888 47.2308L111.041 80.4225C117.668 82.0792 128.711 85.2875 128.711 93.8333C128.711 103.143 115.801 106.212 108.761 107.775C98.7389 110.003 85.1706 111.333 70.3773 111.333C55.5839 111.333 42.0156 110.003 31.9939 107.775C24.9473 106.212 12.0439 103.143 12.0439 93.8333C12.0439 85.2875 23.0864 82.0792 29.7189 80.4225ZM45.4398 48.6833C45.5389 47.887 45.8012 47.1197 46.2103 46.4294C46.6195 45.7391 47.1666 45.1406 47.8176 44.6714C48.4686 44.2022 49.2094 43.8723 49.9937 43.7024C50.7779 43.5326 51.5888 43.5264 52.3756 43.6842C58.2031 44.8508 64.3923 46.9392 70.3773 46.9392C76.3623 46.9392 82.5514 44.8508 88.3789 43.6842C89.1657 43.5264 89.9766 43.5326 90.7609 43.7024C91.5452 43.8723 92.286 44.2022 92.9369 44.6714C93.5879 45.1406 94.1351 45.7391 94.5442 46.4294C94.9534 47.1197 95.2157 47.887 95.3148 48.6833L98.9956 78.165C90.6014 76.9925 80.7956 76.3333 70.3773 76.3333C59.9589 76.3333 50.1531 76.9925 41.7589 78.1592L45.4398 48.6775V48.6833ZM34.5198 96.3941C25.4606 94.3816 25.4606 93.2967 34.5198 91.2842C43.4914 89.2833 56.1731 88 70.3773 88C84.5814 88 97.2631 89.2833 106.235 91.2783C115.294 93.2908 115.294 94.37 106.235 96.3883C97.2631 98.3833 84.5814 99.6667 70.3773 99.6667C56.1731 99.6667 43.4914 98.3891 34.5198 96.3941Z" fill="#E6D9CD"/>
</svg>
