<svg width="110" height="119" viewBox="0 0 110 119" fill="none" xmlns="http://www.w3.org/2000/svg">
<path d="M109.605 106.269L97.5742 10.0187C97.2435 7.373 95.9578 4.93914 93.9588 3.17473C91.9597 1.41033 89.385 0.43692 86.7187 0.4375H23.2812C20.6149 0.43692 18.0401 1.41033 16.0411 3.17473C14.042 4.93914 12.7563 7.373 12.4257 10.0187L0.394473 106.269C0.202144 107.808 0.339354 109.37 0.796996 110.852C1.25464 112.334 2.02224 113.702 3.04887 114.864C4.0755 116.027 5.33766 116.958 6.7516 117.596C8.16554 118.233 9.69891 118.563 11.2499 118.562H33.5023C35.9299 118.57 38.2907 117.767 40.2104 116.281C42.1302 114.795 43.4993 112.711 44.1007 110.359L55.5493 54.4029L65.8882 110.327C66.489 112.684 67.8584 114.773 69.7799 116.265C71.7013 117.756 74.0651 118.565 76.4976 118.562H98.7499C100.301 118.563 101.834 118.233 103.248 117.596C104.662 116.958 105.924 116.027 106.951 114.864C107.978 113.702 108.745 112.334 109.203 110.852C109.661 109.37 109.798 107.808 109.605 106.269ZM88.9062 46.5008C86.9028 45.3418 85.1876 43.7445 83.8892 41.8286C82.5908 39.9126 81.7427 37.7277 81.4085 35.4375H87.5226L88.9062 46.5008ZM84.7882 13.5625L85.882 22.3125H24.1179L25.2117 13.5625H84.7882ZM22.4773 35.4375H28.5913C28.2583 37.7274 27.4107 39.912 26.1121 41.8272C24.8135 43.7424 23.0977 45.3385 21.0937 46.4953L22.4773 35.4375ZM31.8124 105.437H13.7273L19.2726 61.0805C25.2895 59.808 30.7331 56.6229 34.7902 52.001C38.8473 47.3791 41.3001 41.5685 41.782 35.4375H48.4374V41.1633L31.8124 105.437ZM78.1929 105.437L61.5624 41.1633V35.4375H68.2179C68.7001 41.5679 71.153 47.3776 75.2102 51.9986C79.2673 56.6196 84.7108 59.8036 90.7273 61.075L96.2726 105.437H78.1929Z" fill="#E6D9CD"/>
</svg>
