<svg width="50" height="50" viewBox="0 0 50 50" fill="none" xmlns="http://www.w3.org/2000/svg">
<circle cx="25" cy="25" r="25" fill="#FFC5A4"/>
<g clip-path="url(#clip0_125_1748)">
<path d="M21.9121 10.1172C21.7422 10.2286 20.125 12.1739 20.0723 12.3321C20.0606 12.3672 19.2988 12.6895 18.3848 13.0469C17.4766 13.3985 16.5684 13.7852 16.375 13.9024C15.9238 14.1778 15.3379 14.7286 15.0801 15.1153C14.9688 15.2852 14.2129 16.6329 13.3926 18.1153C11.7402 21.127 11.7344 21.1387 12.0039 21.6602C12.1211 21.8887 12.3262 22.0586 13.6621 22.9961C14.5 23.5879 15.291 24.1211 15.4199 24.1797C15.9473 24.4376 16.375 24.2793 16.9141 23.629C17.1192 23.3829 17.2891 23.1895 17.3008 23.2012C17.3125 23.2129 17.5469 24.4844 17.8281 26.0254C18.1914 28.0235 18.3379 28.9727 18.3379 29.3067C18.3379 29.7051 18.291 29.9454 18.0098 30.9004C17.2363 33.5254 16.7383 36.004 16.5567 38.0547C16.4746 39.045 16.4981 39.3497 16.6973 39.6075C17.0195 40.0293 16.3926 40.0001 25 40.0001C33.6133 40.0001 32.9805 40.0293 33.3027 39.6075C33.5137 39.3321 33.5313 38.9747 33.4082 37.7676C33.1856 35.5821 32.6524 33.0333 31.9082 30.6251C31.5508 29.4649 31.5567 29.418 32.1719 26.0254C32.4531 24.4844 32.6875 23.2129 32.6992 23.2012C32.711 23.1895 32.8809 23.3829 33.086 23.629C33.625 24.2793 34.0527 24.4376 34.5801 24.1797C34.709 24.1211 35.5 23.5879 36.3379 22.9961C38.5352 21.4493 38.5 21.5665 37.3399 19.4512C36.9297 18.7071 36.5547 18.0626 36.5078 18.0215C36.2617 17.8223 35.8223 18.0391 35.8223 18.3614C35.8223 18.461 36.1035 19.0352 36.5371 19.8262C36.9356 20.5411 37.2461 21.168 37.2344 21.2149C37.2168 21.2969 34.2402 23.418 34.1465 23.418C34.1289 23.418 34.082 23.3946 34.0469 23.3711C33.9297 23.2891 32.9102 22.0528 32.9102 21.9883C32.9102 21.9532 32.9981 21.4258 33.1094 20.8106C33.3086 19.6856 33.3086 19.5391 33.1211 19.3751C32.9805 19.2637 32.6875 19.2754 32.5586 19.4102C32.4707 19.4981 32.2891 20.4063 31.6563 23.9512C31.2168 26.3887 30.8594 28.3985 30.8594 28.4219C30.8594 28.4395 30.6426 28.4571 30.3731 28.4571C30.0977 28.4571 29.7461 28.4981 29.5762 28.5508C29.2949 28.6329 29.2422 28.6329 29.0371 28.5508C28.6856 28.4102 27.7305 28.4219 27.4317 28.5743C27.2031 28.6915 27.2031 28.6915 26.8281 28.5743C26.582 28.4981 26.2832 28.4571 25.961 28.4571H25.4688V24.1446V19.8321L26.1192 17.711C26.5527 16.293 26.7813 15.4669 26.7988 15.2032L26.834 14.8165L27.543 15.3555C28.2988 15.9297 28.5039 16.0176 28.8672 15.918C29.2891 15.8067 29.4063 15.6075 29.7461 14.4649C29.916 13.8965 30.0567 13.4219 30.0684 13.4102C30.0977 13.3809 32.7168 14.4122 33.0567 14.5879C33.6016 14.8751 34.1231 15.4317 34.5215 16.1524C34.9434 16.92 34.9902 16.9727 35.2363 16.9727C35.4766 16.9727 35.6641 16.7969 35.6641 16.5684C35.6641 16.2168 34.8848 14.9629 34.3516 14.4649C33.7891 13.9376 33.4258 13.7501 31.6152 13.0469C30.7012 12.6895 29.9395 12.3672 29.9277 12.3321C29.8692 12.1563 28.2461 10.2227 28.0703 10.1114C27.8242 9.95904 27.625 9.97076 26.6406 10.211C26.043 10.3575 25.8555 10.3751 25 10.3751C24.1445 10.3751 23.957 10.3575 23.3594 10.211C22.416 9.98248 22.1465 9.9649 21.9121 10.1172ZM23.377 11.1251C23.8633 11.2247 24.168 11.2481 25 11.2481C25.832 11.2481 26.1367 11.2247 26.6231 11.1251C26.9453 11.0547 27.2442 10.9961 27.2852 10.9961C27.3731 10.9961 27.3086 11.5118 27.1856 11.8223C27.1211 11.9864 27.0567 12.045 26.916 12.0801C25.627 12.3555 24.3731 12.3555 23.084 12.0801C22.9375 12.045 22.8789 11.9864 22.8086 11.8165C22.6797 11.4942 22.6211 10.9961 22.7149 10.9961C22.75 10.9961 23.0547 11.0547 23.377 11.1251ZM22.1289 12.4024C22.1992 12.5489 22.4336 12.9122 22.6387 13.2169C22.8438 13.5157 23.0078 13.7852 22.9961 13.8086C22.9727 13.8731 21.4434 15.0391 21.3789 15.0391C21.3555 15.0391 21.2031 14.5938 21.0449 14.0489C20.7051 12.8653 20.6992 12.9122 21.3672 12.086L21.8067 11.5411L21.9004 11.8399C21.9473 12.004 22.0527 12.2559 22.1289 12.4024ZM28.9902 12.5372C29.2598 12.9063 29.2539 13.0059 28.9492 14.0723C28.791 14.6055 28.6445 15.0391 28.6211 15.0391C28.5567 15.0391 27.0274 13.8731 27.0039 13.8086C26.9922 13.7852 27.1563 13.5098 27.3672 13.2051C27.8125 12.5547 28.0176 12.1622 28.1113 11.793L28.1758 11.5235L28.5039 11.9219C28.6797 12.1387 28.9024 12.4141 28.9902 12.5372ZM26.3477 13.1524C26.3477 13.1641 26.2598 13.293 26.1602 13.4454C25.9668 13.7208 25.9668 13.7266 25.9375 14.5704L25.9024 15.42L25.4688 16.8379C25.2285 17.6231 25.0176 18.2618 25 18.2618C24.9824 18.2618 24.7715 17.6231 24.5313 16.8379L24.0977 15.42L24.0625 14.5704C24.0332 13.7266 24.0332 13.7208 23.8457 13.4454C23.7402 13.293 23.6524 13.1641 23.6524 13.1524C23.6524 13.1407 24.2617 13.1348 25 13.1348C25.7442 13.1348 26.3477 13.1407 26.3477 13.1524ZM20.2539 14.459C20.5938 15.6251 20.7051 15.8008 21.127 15.918C21.4961 16.0176 21.7012 15.9297 22.457 15.3555L23.166 14.8165L23.2012 15.2032C23.2188 15.4669 23.4473 16.293 23.8809 17.711L24.5313 19.8321V24.1446V28.4571H21.836C20.3535 28.4571 19.1406 28.4395 19.1406 28.4219C19.1406 28.4043 18.7832 26.3946 18.3438 23.9571C17.711 20.3887 17.5293 19.4981 17.4414 19.4102C17.3125 19.2754 17.0195 19.2637 16.8789 19.3751C16.6914 19.5391 16.6914 19.6856 16.8906 20.8106C17.002 21.4258 17.0899 21.9532 17.0899 21.9883C17.0899 22.0235 16.8496 22.3399 16.5508 22.6915C16.041 23.3008 15.9297 23.418 15.8535 23.418C15.7715 23.418 12.7832 21.2911 12.7656 21.2149C12.7539 21.168 13.4277 19.8848 14.2598 18.3614C16.2637 14.6993 16.0879 14.8809 18.5488 13.92C19.2754 13.6387 19.8906 13.4044 19.9082 13.4044C19.9258 13.3985 20.0781 13.8731 20.2539 14.459ZM26.6406 29.4297C26.875 29.5235 26.875 29.5293 26.875 29.834V30.1446L26.5996 30.2383C26.3711 30.3204 25.9902 30.3321 24.168 30.3321C22.7559 30.3321 21.9649 30.3555 21.8887 30.3965C21.6074 30.543 21.6309 31.0118 21.9297 31.1465C22.0235 31.1876 22.5156 31.211 23.3008 31.211H24.5313V35.1661V39.1211H20.9512H17.3652L17.4063 38.4883C17.5235 36.754 17.9336 34.5098 18.5723 32.1309L18.8184 31.211H19.5098C20.166 31.211 20.207 31.2051 20.3418 31.0645C20.5235 30.8887 20.5293 30.6485 20.3594 30.4668C20.2422 30.3438 20.1836 30.3321 19.6621 30.3321H19.0938L19.1406 30.1387C19.1699 30.0391 19.2051 29.8106 19.2285 29.6407L19.2695 29.336H22.8379C25.9785 29.336 26.4297 29.3477 26.6406 29.4297ZM28.7207 29.834V30.3028H28.252H27.7832L27.7656 29.8985C27.7422 29.3184 27.7363 29.3301 28.2637 29.3477L28.7207 29.3653V29.834ZM30.7715 29.6407C30.7949 29.8106 30.8301 30.0391 30.8594 30.1504L30.9121 30.3438L30.3438 30.3204C30.0332 30.3086 29.7402 30.2793 29.7051 30.2559C29.6582 30.2266 29.6289 30.0684 29.6289 29.8282C29.6289 29.377 29.6699 29.3477 30.3145 29.3418L30.7305 29.336L30.7715 29.6407ZM27.0801 31.6387C26.6582 32.5293 26.5293 33.3379 26.7637 33.6368C27.0215 33.9649 27.5195 33.7305 27.5195 33.2793C27.5195 32.9278 27.6602 32.4708 27.9707 31.8028L28.252 31.1993L28.5332 31.7793C28.8496 32.4356 28.9844 32.8751 28.9844 33.2501C28.9844 33.5489 29.1836 33.7891 29.4238 33.7891C29.6817 33.7891 29.8633 33.5489 29.8633 33.2149C29.8633 32.7989 29.6758 32.1368 29.4004 31.5626C29.2656 31.2872 29.1777 31.0586 29.207 31.0469C29.2363 31.0411 29.4121 31.0704 29.5996 31.1231C29.8047 31.1758 30.1973 31.211 30.5664 31.211H31.1817L31.4277 32.1309C32.0664 34.4981 32.4766 36.7481 32.5938 38.4883L32.6348 39.1211H29.0488H25.4688V35.1719V31.2286L26.0723 31.1993C26.5 31.1817 26.7461 31.1407 26.9336 31.0528C27.1387 30.959 27.2149 30.9473 27.2735 31.0001C27.332 31.0586 27.291 31.1817 27.0801 31.6387Z" fill="black"/>
</g>
<defs>
<clipPath id="clip0_125_1748">
<rect width="30" height="30" fill="white" transform="translate(10 10)"/>
</clipPath>
</defs>
</svg>
