<svg width="43" height="39" viewBox="0 0 43 39" fill="none" xmlns="http://www.w3.org/2000/svg">
<path d="M19.4573 34.5582L19.4551 34.5562C14.1232 29.7212 9.81834 25.8091 6.82896 22.1518C3.85607 18.5147 2.34131 15.3132 2.34131 11.9247C2.34131 6.39202 6.65122 2.09912 12.1669 2.09912C15.2965 2.09912 18.325 3.56376 20.2951 5.85919L21.4333 7.18541L22.5716 5.85919C24.5417 3.56376 27.5702 2.09912 30.6998 2.09912C36.2155 2.09912 40.5254 6.39202 40.5254 11.9247C40.5254 15.3132 39.0106 18.5147 36.0377 22.1518C33.0484 25.8091 28.7435 29.7212 23.4116 34.5562L23.4094 34.5582L21.4333 36.3571L19.4573 34.5582Z" stroke="#FF9680" stroke-width="3"/>
</svg>
