<svg width="42" height="39" viewBox="0 0 42 39" fill="none" xmlns="http://www.w3.org/2000/svg">
<path d="M19.2434 34.5581L19.2412 34.5562C13.9093 29.7212 9.60448 25.8091 6.6151 22.1518C3.64221 18.5147 2.12744 15.3132 2.12744 11.9247C2.12744 6.39202 6.43736 2.09912 11.9531 2.09912C15.0826 2.09912 18.1111 3.56376 20.0812 5.85919L21.2195 7.18541L22.3577 5.85919C24.3278 3.56376 27.3563 2.09912 30.4859 2.09912C36.0016 2.09912 40.3115 6.39202 40.3115 11.9247C40.3115 15.3132 38.7968 18.5147 35.8239 22.1518C32.8345 25.8091 28.5297 29.7212 23.1977 34.5562L23.1956 34.5582L21.2195 36.3571L19.2434 34.5581Z" fill="#FF9680" stroke="#FF9680" stroke-width="3"/>
</svg>
