<svg width="28" height="30" viewBox="0 0 28 30" fill="none" xmlns="http://www.w3.org/2000/svg">
<path d="M10.9121 0.117241C10.7422 0.228569 9.12501 2.17388 9.07228 2.33208C9.06056 2.36724 8.29884 2.68951 7.38478 3.04693C6.47658 3.39849 5.56837 3.78521 5.37501 3.9024C4.92384 4.17779 4.3379 4.72857 4.08009 5.11529C3.96876 5.28521 3.2129 6.63286 2.39259 8.11529C0.740248 11.127 0.734389 11.1387 1.00392 11.6602C1.12111 11.8887 1.32619 12.0586 2.66212 12.9961C3.50001 13.5879 4.29103 14.1211 4.41994 14.1797C4.94728 14.4376 5.37501 14.2793 5.91408 13.629C6.11915 13.3829 6.28908 13.1895 6.30079 13.2012C6.31251 13.2129 6.54689 14.4844 6.82814 16.0254C7.19142 18.0235 7.3379 18.9727 7.3379 19.3067C7.3379 19.7051 7.29103 19.9454 7.00978 20.9004C6.23634 23.5254 5.73829 26.004 5.55665 28.0547C5.47462 29.045 5.49806 29.3497 5.69728 29.6075C6.01954 30.0293 5.39259 30.0001 14 30.0001C22.6133 30.0001 21.9805 30.0293 22.3027 29.6075C22.5137 29.3321 22.5313 28.9747 22.4082 27.7676C22.1856 25.5821 21.6524 23.0333 20.9082 20.6251C20.5508 19.4649 20.5567 19.418 21.1719 16.0254C21.4531 14.4844 21.6875 13.2129 21.6992 13.2012C21.711 13.1895 21.8809 13.3829 22.086 13.629C22.625 14.2793 23.0527 14.4376 23.5801 14.1797C23.709 14.1211 24.5 13.5879 25.3379 12.9961C27.5352 11.4493 27.5 11.5665 26.3399 9.45122C25.9297 8.70708 25.5547 8.06255 25.5078 8.02154C25.2617 7.82232 24.8223 8.03911 24.8223 8.36138C24.8223 8.46099 25.1035 9.03521 25.5371 9.82622C25.9356 10.5411 26.2461 11.168 26.2344 11.2149C26.2168 11.2969 23.2402 13.418 23.1465 13.418C23.1289 13.418 23.082 13.3946 23.0469 13.3711C22.9297 13.2891 21.9102 12.0528 21.9102 11.9883C21.9102 11.9532 21.9981 11.4258 22.1094 10.8106C22.3086 9.6856 22.3086 9.53911 22.1211 9.37505C21.9805 9.26372 21.6875 9.27544 21.5586 9.41021C21.4707 9.4981 21.2891 10.4063 20.6563 13.9512C20.2168 16.3887 19.8594 18.3985 19.8594 18.4219C19.8594 18.4395 19.6426 18.4571 19.3731 18.4571C19.0977 18.4571 18.7461 18.4981 18.5762 18.5508C18.2949 18.6329 18.2422 18.6329 18.0371 18.5508C17.6856 18.4102 16.7305 18.4219 16.4317 18.5743C16.2031 18.6915 16.2031 18.6915 15.8281 18.5743C15.582 18.4981 15.2832 18.4571 14.961 18.4571H14.4688V14.1446V9.83208L15.1192 7.71099C15.5527 6.29302 15.7813 5.46685 15.7988 5.20318L15.834 4.81646L16.543 5.35552C17.2988 5.92974 17.5039 6.01763 17.8672 5.91802C18.2891 5.80669 18.4063 5.60748 18.7461 4.4649C18.916 3.89654 19.0567 3.42193 19.0684 3.41021C19.0977 3.38091 21.7168 4.41216 22.0567 4.58794C22.6016 4.87505 23.1231 5.43169 23.5215 6.1524C23.9434 6.91997 23.9902 6.97271 24.2363 6.97271C24.4766 6.97271 24.6641 6.79693 24.6641 6.56841C24.6641 6.21685 23.8848 4.96294 23.3516 4.4649C22.7891 3.93755 22.4258 3.75005 20.6152 3.04693C19.7012 2.68951 18.9395 2.36724 18.9277 2.33208C18.8692 2.1563 17.2461 0.22271 17.0703 0.111382C16.8242 -0.0409622 16.625 -0.0292435 15.6406 0.210991C15.043 0.357475 14.8555 0.375053 14 0.375053C13.1445 0.375053 12.957 0.357475 12.3594 0.210991C11.416 -0.0175247 11.1465 -0.0351028 10.9121 0.117241ZM12.377 1.12505C12.8633 1.22466 13.168 1.2481 14 1.2481C14.832 1.2481 15.1367 1.22466 15.6231 1.12505C15.9453 1.05474 16.2442 0.996147 16.2852 0.996147C16.3731 0.996147 16.3086 1.51177 16.1856 1.82232C16.1211 1.98638 16.0567 2.04498 15.916 2.08013C14.627 2.35552 13.3731 2.35552 12.084 2.08013C11.9375 2.04498 11.8789 1.98638 11.8086 1.81646C11.6797 1.49419 11.6211 0.996147 11.7149 0.996147C11.75 0.996147 12.0547 1.05474 12.377 1.12505ZM11.1289 2.4024C11.1992 2.54888 11.4336 2.91216 11.6387 3.21685C11.8438 3.51568 12.0078 3.78521 11.9961 3.80865C11.9727 3.8731 10.4434 5.03912 10.3789 5.03912C10.3555 5.03912 10.2031 4.5938 10.0449 4.04888C9.70509 2.86529 9.69923 2.91216 10.3672 2.08599L10.8067 1.54107L10.9004 1.8399C10.9473 2.00396 11.0527 2.25591 11.1289 2.4024ZM17.9902 2.53716C18.2598 2.9063 18.2539 3.00591 17.9492 4.07232C17.791 4.60552 17.6445 5.03912 17.6211 5.03912C17.5567 5.03912 16.0274 3.8731 16.0039 3.80865C15.9922 3.78521 16.1563 3.50982 16.3672 3.20513C16.8125 2.55474 17.0176 2.16216 17.1113 1.79302L17.1758 1.52349L17.5039 1.92193C17.6797 2.13873 17.9024 2.41412 17.9902 2.53716ZM15.3477 3.1524C15.3477 3.16412 15.2598 3.29302 15.1602 3.44537C14.9668 3.72076 14.9668 3.72662 14.9375 4.57037L14.9024 5.41998L14.4688 6.83794C14.2285 7.6231 14.0176 8.26177 14 8.26177C13.9824 8.26177 13.7715 7.6231 13.5313 6.83794L13.0977 5.41998L13.0625 4.57037C13.0332 3.72662 13.0332 3.72076 12.8457 3.44537C12.7402 3.29302 12.6524 3.16412 12.6524 3.1524C12.6524 3.14068 13.2617 3.13482 14 3.13482C14.7442 3.13482 15.3477 3.14068 15.3477 3.1524ZM9.25392 4.45904C9.59376 5.62505 9.70509 5.80083 10.127 5.91802C10.4961 6.01763 10.7012 5.92974 11.457 5.35552L12.166 4.81646L12.2012 5.20318C12.2188 5.46685 12.4473 6.29302 12.8809 7.71099L13.5313 9.83208V14.1446V18.4571H10.836C9.35353 18.4571 8.14064 18.4395 8.14064 18.4219C8.14064 18.4043 7.78322 16.3946 7.34376 13.9571C6.71095 10.3887 6.52931 9.4981 6.44142 9.41021C6.31251 9.27544 6.01954 9.26372 5.87892 9.37505C5.69142 9.53911 5.69142 9.6856 5.89064 10.8106C6.00197 11.4258 6.08986 11.9532 6.08986 11.9883C6.08986 12.0235 5.84962 12.3399 5.55079 12.6915C5.04103 13.3008 4.9297 13.418 4.85353 13.418C4.7715 13.418 1.78322 11.2911 1.76564 11.2149C1.75392 11.168 2.42775 9.88482 3.25978 8.36138C5.26369 4.69927 5.0879 4.88091 7.54884 3.91998C8.2754 3.63873 8.89064 3.40435 8.90822 3.40435C8.92579 3.39849 9.07814 3.8731 9.25392 4.45904ZM15.6406 19.4297C15.875 19.5235 15.875 19.5293 15.875 19.834V20.1446L15.5996 20.2383C15.3711 20.3204 14.9902 20.3321 13.168 20.3321C11.7559 20.3321 10.9649 20.3555 10.8887 20.3965C10.6074 20.543 10.6309 21.0118 10.9297 21.1465C11.0235 21.1876 11.5156 21.211 12.3008 21.211H13.5313V25.1661V29.1211H9.95119H6.36525L6.40626 28.4883C6.52345 26.754 6.93361 24.5098 7.57228 22.1309L7.81837 21.211H8.50978C9.16603 21.211 9.20704 21.2051 9.34181 21.0645C9.52345 20.8887 9.52931 20.6485 9.35939 20.4668C9.2422 20.3438 9.18361 20.3321 8.66212 20.3321H8.09376L8.14064 20.1387C8.16994 20.0391 8.20509 19.8106 8.22853 19.6407L8.26955 19.336H11.8379C14.9785 19.336 15.4297 19.3477 15.6406 19.4297ZM17.7207 19.834V20.3028H17.252H16.7832L16.7656 19.8985C16.7422 19.3184 16.7363 19.3301 17.2637 19.3477L17.7207 19.3653V19.834ZM19.7715 19.6407C19.7949 19.8106 19.8301 20.0391 19.8594 20.1504L19.9121 20.3438L19.3438 20.3204C19.0332 20.3086 18.7402 20.2793 18.7051 20.2559C18.6582 20.2266 18.6289 20.0684 18.6289 19.8282C18.6289 19.377 18.6699 19.3477 19.3145 19.3418L19.7305 19.336L19.7715 19.6407ZM16.0801 21.6387C15.6582 22.5293 15.5293 23.3379 15.7637 23.6368C16.0215 23.9649 16.5195 23.7305 16.5195 23.2793C16.5195 22.9278 16.6602 22.4708 16.9707 21.8028L17.252 21.1993L17.5332 21.7793C17.8496 22.4356 17.9844 22.8751 17.9844 23.2501C17.9844 23.5489 18.1836 23.7891 18.4238 23.7891C18.6817 23.7891 18.8633 23.5489 18.8633 23.2149C18.8633 22.7989 18.6758 22.1368 18.4004 21.5626C18.2656 21.2872 18.1777 21.0586 18.207 21.0469C18.2363 21.0411 18.4121 21.0704 18.5996 21.1231C18.8047 21.1758 19.1973 21.211 19.5664 21.211H20.1817L20.4277 22.1309C21.0664 24.4981 21.4766 26.7481 21.5938 28.4883L21.6348 29.1211H18.0488H14.4688V25.1719V21.2286L15.0723 21.1993C15.5 21.1817 15.7461 21.1407 15.9336 21.0528C16.1387 20.959 16.2149 20.9473 16.2735 21.0001C16.332 21.0586 16.291 21.1817 16.0801 21.6387Z" fill="black"/>
</svg>
