<svg width="212" height="212" viewBox="0 0 212 212" fill="none" xmlns="http://www.w3.org/2000/svg">
<path d="M103.941 53.0839C96.8563 54.255 92.7688 56.3238 88.3699 60.8128C83.7374 65.536 81.3238 71.4302 81.2459 78.0271C81.207 82.438 81.752 85.0924 83.3481 88.6836C85.8006 94.1875 90.0827 98.7155 95.1434 101.175C99.3088 103.205 101.761 103.79 106.472 103.79C113.829 103.79 119.396 101.448 124.573 96.2173C132.748 87.9419 134.228 75.2557 128.155 65.1457C125.118 60.0321 118.851 55.3479 113.089 53.8646C110.598 53.2401 105.576 52.8107 103.941 53.0839ZM112.739 59.9931C117.216 61.6325 120.992 64.7163 123.25 68.5807C129.595 79.3933 124.534 92.7822 112.544 96.998C105.81 99.3791 98.1409 97.4664 92.8077 92.1187C90.3552 89.6595 88.9927 87.3564 87.7859 83.7652C86.8517 80.8376 87.1242 74.6311 88.3309 71.5083C90.1995 66.629 94.7931 62.0619 99.5813 60.2663C103.591 58.744 109.041 58.6269 112.739 59.9931Z" fill="#FF9680"/>
<path d="M75.5235 110.621C69.3727 112.221 63.0663 116.242 63.0663 118.545C63.0663 119.794 64.1953 121.043 65.5967 121.395C66.3363 121.59 67.1538 121.278 69.0224 120.067C72.1367 117.999 74.3556 117.023 77.6256 116.281C79.8835 115.735 83.8152 115.696 106.783 115.774L133.332 115.891L135.746 116.789C143.026 119.521 148.359 124.908 150.967 132.168C151.94 134.901 151.979 135.447 152.135 144.659L152.291 154.34H145.634H138.977V147.353C138.977 139.858 138.704 138.297 137.186 137.594C135.785 136.97 135.279 137.048 134.033 138.102L132.943 139.038L132.826 146.689L132.671 154.34L105.771 154.262L78.8324 154.145L78.7156 146.455L78.6377 138.765L77.5867 137.984C76.341 136.97 75.0952 136.93 73.9274 137.906C72.9931 138.648 72.9931 138.804 72.8763 146.494L72.7595 154.34L65.8692 154.262L58.9788 154.145L58.862 146.923C58.7063 138.062 59.1345 134.745 60.9253 130.06C62.4435 126.118 62.4045 125.298 60.6138 124.088C59.5238 123.385 58.0056 123.62 57.0713 124.596C56.0592 125.767 54.0349 131.388 53.451 134.705C53.0617 137.048 52.9449 140.483 53.0228 147.08C53.1396 157.15 53.1785 157.189 55.8256 159.18C56.8767 160 57.0324 160 105.498 160C153.964 160 154.12 160 155.171 159.18C157.857 157.189 157.857 157.189 157.974 146.611C158.052 138.96 157.974 136.384 157.468 133.886C155.444 123.854 148.709 115.735 139.366 111.909C134.306 109.879 133.799 109.84 105.109 109.879C80.0392 109.879 78.2874 109.918 75.5235 110.621Z" fill="#FF9680"/>
<circle cx="106" cy="106" r="103.5" stroke="#FF9680" stroke-width="5" stroke-linejoin="round" stroke-dasharray="25 25"/>
</svg>
