<svg width="50" height="50" viewBox="0 0 50 50" fill="none" xmlns="http://www.w3.org/2000/svg">
<circle cx="25" cy="25" r="25" fill="#FFC5A4"/>
<g clip-path="url(#clip0_125_776)">
<path d="M23.9453 10.041C22.4219 10.1875 21.4844 10.375 20.3125 10.7617C16.8555 11.8984 13.9727 14.2188 12.0859 17.3828C11.0605 19.0938 10.3809 21.0859 10.1055 23.1836C10.0117 23.9043 10.0117 26.0957 10.1055 26.8164C10.5859 30.4668 12.1914 33.5547 14.9102 36.0801C16.4102 37.4805 18.2793 38.5703 20.3125 39.2383C21.918 39.7715 23.1895 39.9648 25 39.9648C26.3359 39.9648 26.9277 39.9121 28.1055 39.6719C32.1426 38.8457 35.7461 36.2559 37.9141 32.6172C38.9395 30.9062 39.6133 28.9141 39.8945 26.8164C39.9883 26.1074 39.9883 23.9688 39.8945 23.2422C39.5664 20.7109 38.7285 18.502 37.3223 16.4629C36.9004 15.8535 36.7187 15.748 36.4316 15.959C36.1562 16.1641 36.1914 16.3867 36.5898 16.9668C37.9199 18.9004 38.7227 21.0215 39.0098 23.3594C39.1211 24.2559 39.1035 26.0488 38.9805 26.9043C38.5234 30.0508 37.1816 32.7461 34.9609 34.9609C32.7461 37.1816 30.0566 38.5234 26.9043 38.9805C25.9434 39.1211 24.0566 39.1211 23.0957 38.9805C19.9434 38.5234 17.2539 37.1816 15.0391 34.9609C12.8184 32.7461 11.4766 30.0566 11.0195 26.9043C10.8789 25.9434 10.8789 24.0566 11.0195 23.0957C11.4766 19.9434 12.8184 17.2539 15.0391 15.0391C17.2539 12.8184 19.9434 11.4766 23.0957 11.0195C24.0566 10.8789 25.9434 10.8789 26.9043 11.0195C29.7812 11.4297 32.2305 12.5723 34.4453 14.5234C34.873 14.8984 35.002 14.9805 35.1602 14.9805C35.4004 14.9805 35.5645 14.8105 35.5645 14.5645C35.5645 14.3477 35.248 14.0078 34.4219 13.3398C32.0898 11.4531 29.2891 10.3223 26.2891 10.0586C25.6621 10.0059 24.4082 9.99414 23.9453 10.041Z" fill="black"/>
<path d="M24.5899 16.9492C23.5235 17.125 22.9082 17.4355 22.2461 18.1094C21.5489 18.8184 21.1856 19.7031 21.1739 20.6934C21.168 21.3555 21.25 21.7539 21.4903 22.293C21.8594 23.1191 22.504 23.7988 23.2657 24.168C23.8926 24.4727 24.2618 24.5605 24.9707 24.5605C26.0782 24.5605 26.9161 24.209 27.6954 23.4238C28.9258 22.1816 29.1485 20.2773 28.2344 18.7598C27.7774 17.9922 26.834 17.2891 25.9668 17.0664C25.5918 16.9727 24.836 16.9082 24.5899 16.9492ZM25.9141 17.9863C26.5879 18.2324 27.1563 18.6953 27.4961 19.2754C28.4512 20.8984 27.6895 22.9082 25.8848 23.541C24.8711 23.8984 23.7168 23.6113 22.9141 22.8086C22.545 22.4395 22.3399 22.0938 22.1582 21.5547C22.0176 21.1152 22.0586 20.1836 22.2403 19.7148C22.5215 18.9824 23.2129 18.2969 23.9336 18.0273C24.5372 17.7988 25.3575 17.7812 25.9141 17.9863Z" fill="black"/>
<path d="M20.3125 25.5859C19.3867 25.8262 18.4375 26.4297 18.4375 26.7754C18.4375 26.9629 18.6074 27.1504 18.8184 27.2031C18.9297 27.2324 19.0527 27.1855 19.334 27.0039C19.8027 26.6934 20.1367 26.5469 20.6289 26.4355C20.9688 26.3535 21.5606 26.3477 25.0176 26.3594L29.0137 26.377L29.377 26.5117C30.4727 26.9219 31.2754 27.7305 31.668 28.8203C31.8145 29.2305 31.8203 29.3125 31.8438 30.6953L31.8672 32.1484H30.8652H29.8633V31.0996C29.8633 29.9746 29.8223 29.7402 29.5938 29.6348C29.3828 29.541 29.3067 29.5527 29.1192 29.7109L28.9551 29.8516L28.9375 31L28.9141 32.1484L24.8652 32.1367L20.8106 32.1191L20.793 30.9648L20.7813 29.8105L20.6231 29.6934C20.4356 29.541 20.2481 29.5352 20.0723 29.6816C19.9316 29.793 19.9316 29.8164 19.9141 30.9707L19.8965 32.1484L18.8594 32.1367L17.8223 32.1191L17.8047 31.0352C17.7813 29.7051 17.8457 29.207 18.1152 28.5039C18.3438 27.9121 18.3379 27.7891 18.0684 27.6074C17.9043 27.502 17.6758 27.5371 17.5352 27.6836C17.3828 27.8594 17.0781 28.7031 16.9902 29.2012C16.9316 29.5527 16.9141 30.0684 16.9258 31.0586C16.9434 32.5703 16.9492 32.5762 17.3477 32.875C17.5059 32.998 17.5293 32.998 24.8242 32.998C32.1191 32.998 32.1426 32.998 32.3008 32.875C32.7051 32.5762 32.7051 32.5762 32.7227 30.9883C32.7344 29.8398 32.7227 29.4531 32.6465 29.0781C32.3418 27.5723 31.3281 26.3535 29.9219 25.7793C29.1602 25.4746 29.084 25.4688 24.7656 25.4746C20.9922 25.4746 20.7285 25.4805 20.3125 25.5859Z" fill="black"/>
</g>
<defs>
<clipPath id="clip0_125_776">
<rect width="30" height="30" fill="white" transform="translate(10 10)"/>
</clipPath>
</defs>
</svg>
