<svg width="24" height="25" viewBox="0 0 24 25" fill="none" xmlns="http://www.w3.org/2000/svg">
<path d="M15.5 14.5H14.71L14.43 14.23C15.4439 13.054 16.0011 11.5527 16 10C16 8.71442 15.6188 7.45772 14.9046 6.3888C14.1903 5.31988 13.1752 4.48676 11.9874 3.99479C10.7997 3.50282 9.49279 3.37409 8.23192 3.6249C6.97104 3.8757 5.81285 4.49477 4.90381 5.40381C3.99477 6.31285 3.3757 7.47104 3.1249 8.73192C2.87409 9.99279 3.00282 11.2997 3.49479 12.4874C3.98676 13.6752 4.81988 14.6903 5.8888 15.4046C6.95772 16.1188 8.21442 16.5 9.5 16.5C11.11 16.5 12.59 15.91 13.73 14.93L14 15.21V16L19 20.99L20.49 19.5L15.5 14.5ZM9.5 14.5C7.01 14.5 5 12.49 5 10C5 7.51 7.01 5.5 9.5 5.5C11.99 5.5 14 7.51 14 10C14 12.49 11.99 14.5 9.5 14.5Z" fill="#AF867D"/>
</svg>
