<svg width="50" height="50" viewBox="0 0 50 50" fill="none" xmlns="http://www.w3.org/2000/svg">
<circle cx="25" cy="25" r="25" fill="#FFC5A4"/>
<path d="M24.2676 15.8242C23.4707 16.0762 22.8379 16.7031 22.5977 17.4824C22.3633 18.2383 22.4805 18.6719 22.9082 18.6719C23.1836 18.6719 23.3125 18.5078 23.3711 18.0859C23.4239 17.6582 23.5821 17.3418 23.8633 17.0664C24.168 16.7734 24.4434 16.6562 24.9239 16.6328C25.2754 16.6152 25.3926 16.6328 25.6563 16.75C26.4473 17.1191 26.8223 17.9746 26.5528 18.7949C26.4649 19.0586 26.3477 19.2051 25.8203 19.7266C25.3047 20.2363 25.1524 20.4238 24.959 20.8105C24.836 21.0684 24.6953 21.4434 24.6543 21.6426C24.5781 22 24.5664 22.0117 24.3614 22.0469C23.3301 22.2168 22.4864 22.7266 21.959 23.5C21.8535 23.6523 21.6602 24.0215 21.5371 24.3086C21.2676 24.9414 21.0801 25.2695 20.7403 25.7148C20.2129 26.4062 20.002 26.541 17.3946 27.8711C16.0528 28.5566 14.9043 29.166 14.8516 29.2305C14.6172 29.4941 14.8047 29.9219 15.1504 29.9219C15.3496 29.9219 20.002 27.5664 20.4297 27.2559C20.7227 27.0391 21.2559 26.5 21.5254 26.1426C21.8008 25.7852 22.0879 25.2637 22.3633 24.625C22.8789 23.4414 23.7168 22.8906 25 22.8906C26.2832 22.8906 27.1211 23.4414 27.6367 24.625C27.9121 25.2637 28.1992 25.7852 28.4746 26.1426C28.7442 26.5 29.2774 27.0391 29.5703 27.2559C29.7168 27.3613 31.8145 28.457 34.2285 29.6875C36.6485 30.9238 38.6817 31.9668 38.7578 32.0137C38.9395 32.125 39.1211 32.4355 39.1211 32.6348C39.1211 33.0332 38.7813 33.3789 38.3887 33.3789C38.1895 33.3789 37.9199 33.2676 37.0645 32.8281C32.5528 30.5195 31.6914 30.0859 31.5625 30.0625C31.3399 30.0156 31.0938 30.2324 31.0938 30.4727C31.0938 30.5781 31.1289 30.7012 31.1699 30.7539C31.2051 30.8066 32.043 31.2578 33.0274 31.7617L34.8145 32.6758H25.0059C19.6094 32.6758 15.209 32.6641 15.2207 32.6582C15.2324 32.6465 16.8262 31.8262 18.7598 30.8418C23.1016 28.627 23.3301 28.5449 25.0293 28.5449C26.4356 28.5508 27.0449 28.7207 28.7617 29.5762C29.3653 29.8809 29.875 30.0977 29.9746 30.0977C30.0918 30.0977 30.1856 30.0449 30.2676 29.9453C30.5547 29.5762 30.3906 29.4121 29.043 28.7324C27.4844 27.9473 26.711 27.7246 25.3223 27.6602C24.1621 27.6016 23.0313 27.8008 21.9531 28.252C21.7774 28.3281 19.4571 29.5 16.7969 30.8594C11.6582 33.4902 11.5996 33.5195 11.2598 33.2969C11.0547 33.1621 10.8789 32.8633 10.8789 32.6406C10.8789 32.2422 11.0489 32.1074 12.4903 31.375C13.2344 30.9941 13.8848 30.6309 13.9434 30.5605C13.9961 30.4902 14.043 30.373 14.043 30.291C14.043 30.1152 13.7969 29.8633 13.627 29.8633C13.5567 29.8633 12.877 30.1797 12.1153 30.5723C11.1426 31.0645 10.6563 31.3516 10.4805 31.5215C9.84768 32.1367 9.85354 33.168 10.4922 33.8066C10.7852 34.0996 11.084 34.2227 11.5821 34.2461C12.0215 34.2695 12.0274 34.2637 12.7422 33.9121L13.4629 33.5547H25H36.5371L37.252 33.9062C37.9082 34.2285 37.9961 34.2578 38.3535 34.2578C39.0508 34.2578 39.6426 33.8535 39.8828 33.2207C40.0996 32.6406 39.9824 32.0254 39.5781 31.5859C39.2969 31.2754 39.4082 31.3398 34.2696 28.7207C29.8633 26.4707 29.8164 26.4414 29.2539 25.709C28.9434 25.3105 28.6504 24.7832 28.4043 24.1797C27.9531 23.0898 27.0508 22.3398 25.9141 22.0996C25.6914 22.0586 25.5039 22.0059 25.4922 21.9941C25.4336 21.9355 25.7149 21.2031 25.9024 20.9336C26.0196 20.7695 26.3184 20.4414 26.5762 20.207C26.9512 19.873 27.0918 19.6914 27.2617 19.3516C27.8184 18.2266 27.4492 16.8613 26.4063 16.1641C26.2071 16.0293 25.9082 15.877 25.7442 15.8301C25.3867 15.7246 24.5957 15.7188 24.2676 15.8242Z" fill="black"/>
</svg>
