<svg width="50" height="50" viewBox="0 0 50 50" fill="none" xmlns="http://www.w3.org/2000/svg">
<circle cx="25" cy="25" r="25" fill="#FFC5A4"/>
<path d="M17.7051 11.4649C16.5977 11.5821 15.918 11.7813 14.834 12.3145C12.5547 13.4395 10.8907 15.5665 10.2579 18.1739C9.75983 20.2247 10.0118 22.375 10.9727 24.3262C11.5059 25.4102 11.8985 25.8848 14.336 28.4219C15.5782 29.7168 16.961 31.1583 17.4122 31.627C17.8633 32.1016 18.3204 32.5293 18.4317 32.5879C18.6133 32.6817 18.6485 32.6817 18.8184 32.5997C19.0645 32.4825 19.1583 32.2364 19.0528 31.9961C19.0118 31.9024 17.7169 30.5196 16.1817 28.9258C14.6407 27.3321 13.211 25.8262 12.9942 25.586C11.9219 24.379 11.2891 22.9844 11.0489 21.3028C10.9551 20.6231 11.0137 19.2754 11.1661 18.584C11.8575 15.4668 14.1016 13.1817 17.0899 12.5372C17.7579 12.3965 19.1465 12.3965 19.8321 12.543C21.6719 12.9297 23.1661 13.8907 24.4317 15.4903C24.7422 15.8887 24.7833 15.918 24.9942 15.918C25.2403 15.918 25.2696 15.8946 25.8204 15.1856C26.459 14.3653 27.4903 13.5625 28.5215 13.0821C29.4532 12.6485 30.1973 12.4668 31.252 12.42C31.8438 12.3907 31.9903 12.3672 32.0899 12.2735C32.254 12.1211 32.3008 11.8868 32.2012 11.7051C32.0196 11.3829 31.7266 11.3477 30.584 11.4942C28.6094 11.752 27.0274 12.5372 25.6036 13.9786L25.0001 14.5879L24.3907 13.9727C22.8145 12.379 20.9688 11.5528 18.7598 11.4473C18.4376 11.4297 17.963 11.4415 17.7051 11.4649Z" fill="black"/>
<path d="M33.7012 12.0215C33.4082 12.3086 33.5664 12.6836 34.0527 12.8652C36.4609 13.7676 38.2715 15.9473 38.8633 18.6719C39.0332 19.4453 39.0215 21.1328 38.8398 21.9473C38.5938 23.0488 38.1602 24.0391 37.5566 24.8945C37.1816 25.4277 37.4043 25.1934 30.8652 31.9902C25.4746 37.5977 25.4746 37.5977 25 37.5977C24.5605 37.5977 24.3789 37.4453 22.4746 35.4707C21.4668 34.416 20.5645 33.5254 20.4766 33.4902C20.3477 33.4375 20.2715 33.4375 20.1367 33.4961C19.9258 33.584 19.8438 33.7129 19.8438 33.9648C19.8438 34.123 20.0312 34.3398 21.2324 35.5938C23.3125 37.7617 23.7695 38.2012 24.0742 38.3477C24.6484 38.623 25.3574 38.623 25.9258 38.3477C26.0781 38.2715 26.4414 37.9727 26.7344 37.6855C27.707 36.7305 37.6211 26.3945 37.9434 26.002C39.0391 24.6602 39.6777 23.166 39.9121 21.4023C40.4336 17.4941 38.2832 13.6152 34.7676 12.1094C34.123 11.834 33.9004 11.8164 33.7012 12.0215Z" fill="black"/>
</svg>
